<svg width="28" height="28" viewBox="0 0 28 28" fill="none" xmlns="http://www.w3.org/2000/svg">
<path d="M13.8017 10.5001L17.5 14.1867C17.5 14.1284 17.5 14.0584 17.5 14.0001C17.5 13.0718 17.1312 12.1816 16.4749 11.5252C15.8185 10.8688 14.9282 10.5001 14 10.5001C13.93 10.5001 13.8717 10.5001 13.8017 10.5001ZM8.78499 11.4334L10.5933 13.2417C10.535 13.4867 10.5 13.7317 10.5 14.0001C10.5 14.9283 10.8687 15.8186 11.5251 16.4749C12.1815 17.1313 13.0717 17.5001 14 17.5001C14.2567 17.5001 14.5133 17.4651 14.7583 17.4067L16.5667 19.2151C15.785 19.6001 14.9217 19.8334 14 19.8334C12.4529 19.8334 10.9692 19.2188 9.8752 18.1249C8.78124 17.0309 8.16666 15.5472 8.16666 14.0001C8.16666 13.0784 8.39999 12.2151 8.78499 11.4334ZM2.33332 4.98173L4.99332 7.64173L5.51832 8.16673C3.59332 9.68339 2.07666 11.6667 1.16666 14.0001C3.18499 19.1217 8.16666 22.7501 14 22.7501C15.8083 22.7501 17.535 22.4001 19.11 21.7701L19.6117 22.2601L23.0183 25.6667L24.5 24.1851L3.81499 3.50006M14 8.16673C15.5471 8.16673 17.0308 8.78131 18.1248 9.87527C19.2187 10.9692 19.8333 12.453 19.8333 14.0001C19.8333 14.7467 19.6817 15.4701 19.4133 16.1234L22.8317 19.5417C24.5817 18.0834 25.9817 16.1701 26.8333 14.0001C24.815 8.87839 19.8333 5.25006 14 5.25006C12.3667 5.25006 10.8033 5.54173 9.33332 6.06673L11.865 8.57506C12.53 8.31839 13.2417 8.16673 14 8.16673Z" fill="white"/>
</svg>
