<svg width="146" height="31" viewBox="0 0 146 31" fill="none" xmlns="http://www.w3.org/2000/svg">
<path d="M0.638672 20.8154H2.38831C3.01472 20.8154 3.50073 20.9018 3.84634 21.0746C4.21354 21.2474 4.52675 21.5066 4.78595 21.8522C5.28276 22.5002 5.53117 23.4182 5.53117 24.6063C5.48797 25.8375 5.20716 26.7663 4.68875 27.3927C4.17034 28.0407 3.36033 28.3539 2.2587 28.3323H0.638672V20.8154ZM2.1939 27.6843C3.85714 27.6843 4.68875 26.6799 4.68875 24.6711C4.68875 23.6558 4.50515 22.8782 4.13794 22.3382C3.74913 21.7982 3.14432 21.5282 2.32351 21.5282H1.44869V27.6843H2.1939Z" fill="#EDECEE"/>
<path d="M18.5714 28.4619C17.7938 28.4619 17.1998 28.2243 16.7894 27.7491C16.379 27.2739 16.1738 26.6043 16.1738 25.7403V20.8154H17.1134V20.9126C17.0486 20.9558 17.0162 21.0098 17.0162 21.0746C16.9946 21.1178 16.9838 21.215 16.9838 21.3662V25.7403C16.9838 26.3883 17.1134 26.8851 17.3726 27.2307C17.6102 27.5763 18.0206 27.7491 18.6038 27.7491C19.1654 27.7491 19.5758 27.5763 19.835 27.2307C20.0942 26.8851 20.2239 26.3775 20.2239 25.7079V20.8154H21.0339V25.7079C21.0339 26.6367 20.8179 27.3279 20.3859 27.7815C19.9538 28.2351 19.349 28.4619 18.5714 28.4619Z" fill="#EDECEE"/>
<path d="M33.1345 24.5738L32.5189 25.2219V28.3323H31.6441V20.8154H32.6485V20.9126C32.6053 20.9558 32.5729 21.0098 32.5513 21.0746C32.5297 21.1178 32.5189 21.215 32.5189 21.3662V24.2822L35.6618 20.783C35.8562 20.8046 36.0614 20.8154 36.2774 20.8154H36.6014L33.7501 24.0554L36.7958 28.3323L35.7266 28.3647L33.1345 24.5738Z" fill="#EDECEE"/>
<path d="M48.702 24.5738L48.0864 25.2219V28.3323H47.2116V20.8154H48.216V20.9126C48.1728 20.9558 48.1404 21.0098 48.1188 21.0746C48.0972 21.1178 48.0864 21.215 48.0864 21.3662V24.2822L51.2293 20.783C51.4237 20.8046 51.6289 20.8154 51.8449 20.8154H52.1689L49.3176 24.0554L52.3633 28.3323L51.2941 28.3647L48.702 24.5738Z" fill="#EDECEE"/>
<path d="M62.9735 20.8154H67.5744V21.5606H63.7511V24.023H66.9264V24.8007H63.7511V27.5871H67.542V28.3323H62.9735V20.8154Z" fill="#EDECEE"/>
<path d="M80.809 28.4619C79.837 28.4619 79.0486 28.1379 78.4438 27.4899L78.8974 26.7447L78.9298 26.6475L79.027 26.6799C79.027 26.7015 79.0378 26.7447 79.0594 26.8095C79.0594 26.8527 79.081 26.9067 79.1242 26.9715C79.1458 27.0147 79.189 27.0579 79.2538 27.1011C79.7074 27.4899 80.269 27.6843 80.9386 27.6843C81.3706 27.6843 81.7378 27.5655 82.0402 27.3279C82.3427 27.0687 82.4939 26.7663 82.4939 26.4207C82.4939 26.1831 82.4399 25.9779 82.3318 25.8051C82.2454 25.6539 82.0834 25.5027 81.8458 25.3515C81.6082 25.2003 81.241 25.0167 80.7442 24.8007C80.0098 24.5198 79.4806 24.1958 79.1566 23.8286C78.8542 23.4614 78.703 23.051 78.703 22.5974C78.703 22.0358 78.9082 21.5822 79.3186 21.2366C79.729 20.891 80.2798 20.7182 80.971 20.7182C81.3814 20.7182 81.7702 20.8046 82.1374 20.9774C82.4831 21.1502 82.7963 21.377 83.0771 21.6578L82.5263 22.403L82.4614 22.3382C82.4614 22.3166 82.4506 22.2842 82.429 22.241C82.429 22.1762 82.4075 22.1222 82.3643 22.079C82.3427 22.0142 82.2995 21.9602 82.2346 21.917C82.0618 21.7442 81.8566 21.6146 81.619 21.5282C81.403 21.4634 81.1438 21.431 80.8414 21.431C80.4526 21.431 80.1502 21.539 79.9342 21.755C79.6966 21.971 79.5778 22.2302 79.5778 22.5326C79.5778 22.7702 79.621 22.9754 79.7074 23.1482C79.8154 23.321 79.999 23.483 80.2582 23.6342C80.5174 23.807 80.9062 23.9906 81.4246 24.185C82.1374 24.4874 82.6342 24.7899 82.9151 25.0923C83.1743 25.4163 83.3039 25.8159 83.3039 26.2911C83.3039 26.6583 83.2175 27.0039 83.0447 27.3279C82.8503 27.6519 82.5694 27.9219 82.2022 28.1379C81.8134 28.3539 81.349 28.4619 80.809 28.4619Z" fill="#EDECEE"/>
<path d="M98.2234 30.082C97.4457 30.1036 96.9057 29.9956 96.6033 29.758C96.2793 29.4987 96.1173 29.0559 96.1173 28.4295C95.7069 28.3647 95.3181 28.1811 94.9509 27.8787C94.5837 27.5763 94.2921 27.1551 94.0761 26.6151C93.8601 26.0535 93.7521 25.3839 93.7521 24.6063C93.7521 23.6774 93.8817 22.9322 94.1409 22.3706C94.4217 21.7874 94.7673 21.3662 95.1777 21.107C95.5881 20.8694 95.9985 20.7506 96.4089 20.7506C96.9057 20.7506 97.3593 20.8802 97.7697 21.1394C98.1801 21.4202 98.5042 21.8522 98.7418 22.4354C98.9794 23.0186 99.0874 23.7314 99.0658 24.5738C99.0658 25.6971 98.8822 26.5719 98.515 27.1983C98.1477 27.8463 97.5969 28.2567 96.8625 28.4295C96.8625 28.7103 96.9381 28.9263 97.0893 29.0775C97.2189 29.2287 97.4349 29.3043 97.7373 29.3043L98.7094 29.2719V30.082H98.2234ZM96.4737 27.6843C96.7761 27.6843 97.0569 27.5763 97.3161 27.3603C97.5969 27.1659 97.8237 26.8527 97.9965 26.4207C98.1693 26.0103 98.2557 25.4703 98.2557 24.8007C98.2557 23.9582 98.1586 23.2886 97.9641 22.7918C97.7913 22.3166 97.5645 21.9818 97.2837 21.7874C97.0029 21.5714 96.7113 21.4634 96.4089 21.4634C95.8257 21.4634 95.3721 21.755 95.0481 22.3382C94.7241 22.9214 94.5621 23.6234 94.5621 24.4442C94.5621 25.4163 94.7349 26.1939 95.0805 26.7771C95.4261 27.3819 95.8905 27.6843 96.4737 27.6843Z" fill="#EDECEE"/>
<path d="M111.976 28.4619C111.199 28.4619 110.605 28.2243 110.194 27.7491C109.784 27.2739 109.579 26.6043 109.579 25.7403V20.8154H110.518V20.9126C110.454 20.9558 110.421 21.0098 110.421 21.0746C110.4 21.1178 110.389 21.215 110.389 21.3662V25.7403C110.389 26.3883 110.518 26.8851 110.778 27.2307C111.015 27.5763 111.426 27.7491 112.009 27.7491C112.57 27.7491 112.981 27.5763 113.24 27.2307C113.499 26.8851 113.629 26.3775 113.629 25.7079V20.8154H114.439V25.7079C114.439 26.6367 114.223 27.3279 113.791 27.7815C113.359 28.2351 112.754 28.4619 111.976 28.4619Z" fill="#EDECEE"/>
<path d="M128.743 26.1291H126.313L125.567 28.3323H124.725L127.479 20.6858H127.576L130.363 28.3323H129.488L128.743 26.1291ZM128.516 25.4811L127.544 22.6298L126.539 25.4811H128.516Z" fill="#EDECEE"/>
<path d="M140.746 20.8154H142.496C143.122 20.8154 143.608 20.9018 143.954 21.0746C144.321 21.2474 144.634 21.5066 144.893 21.8522C145.39 22.5002 145.639 23.4182 145.639 24.6063C145.595 25.8375 145.315 26.7663 144.796 27.3927C144.278 28.0407 143.468 28.3539 142.366 28.3323H140.746V20.8154ZM142.301 27.6843C143.965 27.6843 144.796 26.6799 144.796 24.6711C144.796 23.6558 144.613 22.8782 144.245 22.3382C143.857 21.7982 143.252 21.5282 142.431 21.5282H141.556V27.6843H142.301Z" fill="#EDECEE"/>
<path d="M1.5403 0.683302H0.638672V17.9857H1.5403V0.683302Z" fill="white"/>
<path d="M2.44209 0.683289H1.99127V17.9857H2.44209V0.683289Z" fill="white"/>
<path d="M3.79446 0.683289H3.34365V17.9857H3.79446V0.683289Z" fill="white"/>
<path d="M6.04818 0.683289H5.59737V17.9857H6.04818V0.683289Z" fill="white"/>
<path d="M7.85159 0.683289H6.94997V17.9857H7.85159V0.683289Z" fill="white"/>
<path d="M10.1058 0.683289H9.65495V17.9857H10.1058V0.683289Z" fill="white"/>
<path d="M11.0073 0.683289H10.5565V17.9857H11.0073V0.683289Z" fill="white"/>
<path d="M13.7121 0.683289H11.9089V17.9857H13.7121V0.683289Z" fill="white"/>
<path d="M14.6139 0.683289H14.1631V17.9857H14.6139V0.683289Z" fill="white"/>
<path d="M15.9663 0.683289H15.5154V17.9857H15.9663V0.683289Z" fill="white"/>
<path d="M18.6713 0.683289H16.868V17.9857H18.6713V0.683289Z" fill="white"/>
<path d="M19.5728 0.683289H19.122V17.9857H19.5728V0.683289Z" fill="white"/>
<path d="M20.9254 0.683289H20.4746V17.9857H20.9254V0.683289Z" fill="white"/>
<path d="M21.8268 0.683289H21.376V17.9857H21.8268V0.683289Z" fill="white"/>
<path d="M24.5318 0.683289H22.7286V17.9857H24.5318V0.683289Z" fill="white"/>
<path d="M25.8841 0.683289H25.4333V17.9857H25.8841V0.683289Z" fill="white"/>
<path d="M28.1381 0.683289H26.3349V17.9857H28.1381V0.683289Z" fill="white"/>
<path d="M29.4907 0.683289H29.0399V17.9857H29.4907V0.683289Z" fill="white"/>
<path d="M31.7446 0.683289H30.3922V17.9857H31.7446V0.683289Z" fill="white"/>
<path d="M33.0972 0.683289H32.6464V17.9857H33.0972V0.683289Z" fill="white"/>
<path d="M34.9004 0.683289H33.9988V17.9857H34.9004V0.683289Z" fill="white"/>
<path d="M35.8022 0.683289H35.3514V17.9857H35.8022V0.683289Z" fill="white"/>
<path d="M37.6054 0.683289H36.2529V17.9857H37.6054V0.683289Z" fill="white"/>
<path d="M39.4085 0.683289H38.5069V17.9857H39.4085V0.683289Z" fill="white"/>
<path d="M40.7609 0.683289H40.3101V17.9857H40.7609V0.683289Z" fill="white"/>
<path d="M42.5641 0.683289H41.2116V17.9857H42.5641V0.683289Z" fill="white"/>
<path d="M44.3675 0.683289H43.4658V17.9857H44.3675V0.683289Z" fill="white"/>
<path d="M45.72 0.683289H45.2692V17.9857H45.72V0.683289Z" fill="white"/>
<path d="M48.4248 0.683289H46.6216V17.9857H48.4248V0.683289Z" fill="white"/>
<path d="M49.3266 0.683289H48.8758V17.9857H49.3266V0.683289Z" fill="white"/>
<path d="M50.6787 0.683289H50.2279V17.9857H50.6787V0.683289Z" fill="white"/>
<path d="M53.3839 0.683289H52.4823V17.9857H53.3839V0.683289Z" fill="white"/>
<path d="M54.2853 0.683289H53.8345V17.9857H54.2853V0.683289Z" fill="white"/>
<path d="M56.0887 0.683289H55.1871V17.9857H56.0887V0.683289Z" fill="white"/>
<path d="M58.3426 0.683289H57.8918V17.9857H58.3426V0.683289Z" fill="white"/>
<path d="M59.2442 0.683289H58.7934V17.9857H59.2442V0.683289Z" fill="white"/>
<path d="M61.0476 0.683289H60.146V17.9857H61.0476V0.683289Z" fill="white"/>
<path d="M62.3998 0.683289H61.4981V17.9857H62.3998V0.683289Z" fill="white"/>
<path d="M64.654 0.683289H62.8507V17.9857H64.654V0.683289Z" fill="white"/>
<path d="M65.5555 0.683289H65.1047V17.9857H65.5555V0.683289Z" fill="white"/>
<path d="M68.2605 0.683289H66.4573V17.9857H68.2605V0.683289Z" fill="white"/>
<path d="M69.6131 0.683289H69.1623V17.9857H69.6131V0.683289Z" fill="white"/>
<path d="M70.5146 0.683289H70.0638V17.9857H70.5146V0.683289Z" fill="white"/>
<path d="M71.867 0.683289H71.4162V17.9857H71.867V0.683289Z" fill="white"/>
<path d="M74.5716 0.683289H72.7684V17.9857H74.5716V0.683289Z" fill="white"/>
<path d="M75.9244 0.683289H75.0228V17.9857H75.9244V0.683289Z" fill="white"/>
<path d="M77.2767 0.683289H76.8259V17.9857H77.2767V0.683289Z" fill="white"/>
<path d="M78.1783 0.683289H77.7275V17.9857H78.1783V0.683289Z" fill="white"/>
<path d="M80.4323 0.683289H79.9815V17.9857H80.4323V0.683289Z" fill="white"/>
<path d="M82.2357 0.683289H81.3341V17.9857H82.2357V0.683289Z" fill="white"/>
<path d="M84.4899 0.683289H83.1375V17.9857H84.4899V0.683289Z" fill="white"/>
<path d="M85.3914 0.683289H84.9406V17.9857H85.3914V0.683289Z" fill="white"/>
<path d="M87.6454 0.683289H87.1946V17.9857H87.6454V0.683289Z" fill="white"/>
<path d="M88.9978 0.683289H88.0962V17.9857H88.9978V0.683289Z" fill="white"/>
<path d="M90.3501 0.683289H89.8993V17.9857H90.3501V0.683289Z" fill="white"/>
<path d="M93.506 0.683289H91.7027V17.9857H93.506V0.683289Z" fill="white"/>
<path d="M94.4077 0.683289H93.9569V17.9857H94.4077V0.683289Z" fill="white"/>
<path d="M96.6617 0.683289H94.8585V17.9857H96.6617V0.683289Z" fill="white"/>
<path d="M98.4649 0.683289H97.1124V17.9857H98.4649V0.683289Z" fill="white"/>
<path d="M99.3666 0.683289H98.9158V17.9857H99.3666V0.683289Z" fill="white"/>
<path d="M100.268 0.683289H99.8174V17.9857H100.268V0.683289Z" fill="white"/>
<path d="M102.071 0.683289H100.719V17.9857H102.071V0.683289Z" fill="white"/>
<path d="M103.875 0.683289H102.973V17.9857H103.875V0.683289Z" fill="white"/>
<path d="M105.227 0.683289H104.777V17.9857H105.227V0.683289Z" fill="white"/>
<path d="M107.03 0.683289H106.129V17.9857H107.03V0.683289Z" fill="white"/>
<path d="M109.284 0.683289H108.834V17.9857H109.284V0.683289Z" fill="white"/>
<path d="M110.186 0.683289H109.735V17.9857H110.186V0.683289Z" fill="white"/>
<path d="M112.44 0.683289H111.989V17.9857H112.44V0.683289Z" fill="white"/>
<path d="M114.243 0.683289H113.342V17.9857H114.243V0.683289Z" fill="white"/>
<path d="M115.145 0.683289H114.694V17.9857H115.145V0.683289Z" fill="white"/>
<path d="M117.85 0.683289H116.047V17.9857H117.85V0.683289Z" fill="white"/>
<path d="M119.202 0.683289H118.752V17.9857H119.202V0.683289Z" fill="white"/>
<path d="M120.555 0.683289H119.653V17.9857H120.555V0.683289Z" fill="white"/>
<path d="M122.809 0.683289H122.358V17.9857H122.809V0.683289Z" fill="white"/>
<path d="M124.161 0.683289H123.71V17.9857H124.161V0.683289Z" fill="white"/>
<path d="M125.514 0.683289H124.612V17.9857H125.514V0.683289Z" fill="white"/>
<path d="M127.768 0.683289H127.317V17.9857H127.768V0.683289Z" fill="white"/>
<path d="M129.12 0.683289H128.67V17.9857H129.12V0.683289Z" fill="white"/>
<path d="M130.022 0.683289H129.571V17.9857H130.022V0.683289Z" fill="white"/>
<path d="M131.374 0.683289H130.473V17.9857H131.374V0.683289Z" fill="white"/>
<path d="M132.727 0.683289H132.276V17.9857H132.727V0.683289Z" fill="white"/>
<path d="M134.981 0.683289H134.53V17.9857H134.981V0.683289Z" fill="white"/>
<path d="M136.784 0.683289H135.882V17.9857H136.784V0.683289Z" fill="white"/>
<path d="M138.587 0.683289H137.235V17.9857H138.587V0.683289Z" fill="white"/>
<path d="M140.391 0.683289H139.489V17.9857H140.391V0.683289Z" fill="white"/>
<path d="M143.095 0.683289H141.743V17.9857H143.095V0.683289Z" fill="white"/>
<path d="M143.997 0.683289H143.546V17.9857H143.997V0.683289Z" fill="white"/>
<path d="M145.35 0.683289H144.448V17.9857H145.35V0.683289Z" fill="white"/>
</svg>
