<svg width="124" height="181" viewBox="0 0 124 181" fill="none" xmlns="http://www.w3.org/2000/svg">
<path fill-rule="evenodd" clip-rule="evenodd" d="M85.2115 5.7781C81.7297 2.92079 75.7218 1.20642 64.4569 3.20858e-10C46.1088 -2.01848e-05 36.8921 0.952379 31.6864 2.53982C30.1844 2.79381 28.068 3.42876 26.9073 4.00022C25.815 4.57168 24.0399 5.20663 23.0841 5.33362C22.1283 5.52411 19.7388 7.175 17.8272 9.01638C14.277 12.3817 13.1847 14.5405 15.5059 13.6516C17.8955 12.6991 19.0561 12.5721 19.0561 13.2071C19.0561 13.5246 18.1003 14.1595 17.0079 14.604C12.2289 16.4454 8.81529 20.7631 8.81529 24.9538C8.81529 26.1602 8.40567 27.4937 7.8595 27.8747C7.17678 28.4461 6.83541 30.5415 6.6306 35.1132C6.42578 40.8278 6.22096 41.8437 4.71898 43.8121C2.94391 46.1614 2.60255 48.1298 2.67083 57.1462C2.7391 59.7495 2.7391 63.2418 2.7391 64.9562C2.7391 68.512 3.89972 69.4644 9.02012 70.0994C11.9558 70.4168 19.1926 69.3374 20.9677 68.3215C21.3773 68.131 23.8351 67.8135 26.566 67.623L27.3788 67.5592C29.9471 67.3573 32.4802 68.2574 34.349 70.0359C37.5578 72.9567 41.2444 78.9888 40.4935 80.0682C40.2886 80.4492 38.7867 79.5602 37.1481 78.1633C35.5096 76.7664 32.5739 74.8615 30.594 73.9091C27.4535 72.4487 26.4294 72.2582 22.4697 72.5757C16.8031 72.9567 14.1405 73.9091 14.755 75.306C15.0963 76.1315 15.779 76.195 19.3292 75.814C27.8632 74.7345 32.5056 75.687 35.3731 79.1158C38.8549 83.243 36.1241 84.9574 26.9756 84.5764C21.6504 84.3224 21.6504 84.3224 20.6946 82.2271C19.3974 79.3697 18.9878 79.2427 16.3252 80.8301C15.0963 81.5921 13.5261 82.5445 12.8433 82.862C12.2289 83.243 11.2048 83.9414 10.5904 84.3859C9.63456 85.1479 8.95184 85.0208 6.01615 83.4969C3.91361 82.4659 2.66728 82.0918 2.07341 82.4638C1.60668 82.7562 1.54295 83.5095 1.7833 84.7669C1.98811 85.5288 1.57848 86.9892 0.964031 87.8782C-0.811038 90.418 -0.0600487 100.387 2.60255 109.848C3.6949 113.911 4.71899 117.912 4.85553 118.737C4.99207 119.626 5.60652 121.023 6.28924 121.912C6.90369 122.737 7.44986 123.944 7.44986 124.515C7.44986 125.087 7.92776 125.912 8.54221 126.42C9.15666 126.865 10.6586 129.087 11.8875 131.373C13.1164 133.659 14.9598 136.262 15.9156 137.087C18.1003 138.992 18.1685 140.135 16.0521 141.659C15.1646 142.294 14.0722 143.691 13.5943 144.707C12.8433 146.421 12.9116 146.929 14.2088 148.898C14.9598 150.168 15.6425 151.628 15.6425 152.136C15.6425 152.644 18.5782 155.946 22.1283 159.438C25.6785 162.93 28.6141 166.105 28.6141 166.422C28.6141 167.883 39.1963 177.915 42.3368 179.376C50.0515 183.058 61.3847 180.392 72.9226 172.264C74.5611 171.058 77.1555 169.47 78.7257 168.772C81.798 167.311 82.9586 166.359 90.8781 159.438C93.8138 156.835 96.2033 154.358 96.2033 153.977C96.2033 153.533 96.8178 152.453 97.5688 151.564C99.139 149.723 99.2756 147.882 98.1149 146.04C97.4322 145.088 97.5005 144.516 98.2515 143.183C99.0707 141.786 99.0707 141.215 98.3198 139.5C96.613 135.564 96.6812 135.056 100.231 130.484C102.075 128.008 105.01 123.88 106.717 121.213C108.356 118.61 110.199 116.07 110.813 115.626C111.428 115.118 111.906 114.419 111.906 113.975C111.906 113.467 112.657 112.324 113.544 111.308C114.432 110.356 116.002 107.943 117.026 106.038C118.05 104.133 119.416 101.847 120.03 100.958C120.645 100.069 121.874 97.3391 122.761 94.7992C124.195 90.7355 124.263 89.91 123.58 87.3067C123.171 85.6558 122.966 83.751 123.239 83.0525C123.464 82.3641 123.371 81.7393 123.045 81.2111L123.042 81.2058C121.98 79.4968 118.479 78.8042 115.456 80.2587C110.404 82.6715 87.6693 85.4653 83.3682 84.1954C82.6172 83.9414 81.5249 82.608 80.9104 81.2111C80.2219 79.6668 78.6032 78.7601 76.9312 78.9823L76.4045 79.0523C72.7861 79.4967 72.1716 78.9888 74.2198 77.2744C75.8583 75.8775 80.6373 74.9885 86.0991 74.925C93.7455 74.925 92.9945 72.2582 85.075 71.4963C77.5651 70.7978 70.8062 74.2266 68.8946 79.6872C68.4849 80.8301 67.3926 82.2905 66.4368 82.862C65.0031 83.7509 64.7982 84.2589 64.8665 87.1797C65.1396 93.7198 62.7501 97.7835 58.6538 97.7835C57.6297 97.7835 56.1277 97.2756 55.3085 96.6406C54.0113 95.6882 53.8747 94.8627 53.7382 88.5766C53.6017 78.6713 54.1478 76.449 58.2442 70.3534C61.7943 64.9562 67.8022 63.5593 77.9747 65.6547C85.9625 67.3055 98.0467 67.2421 103.577 65.4642C105.966 64.7657 108.287 63.9403 108.697 63.6863C109.175 63.3688 111.36 62.6069 113.613 61.9084C118.801 60.2575 119.757 58.7336 119.074 53.146C118.665 49.7807 118.187 48.8917 116.207 47.1139C114.91 46.0344 113.408 45.082 112.862 45.082C110.336 45.082 105.966 43.2406 103.235 41.0183C99.4121 37.907 97.5688 34.5417 97.5688 30.732C97.5688 29.0811 97.2957 26.8587 96.886 25.7793C96.5447 24.6998 96.0668 22.668 95.862 21.3346C95.5889 19.7472 94.7013 18.2233 93.5407 17.2073C92.4484 16.2549 91.4243 14.9215 91.1512 14.223C90.5368 12.3182 88.83 11.1117 85.4846 10.2228C82.4124 9.46085 81.32 7.93696 84.2557 8.63541C85.2115 8.8259 86.4404 8.8259 87.0549 8.63541C87.9424 8.31793 87.5328 7.74647 85.2115 5.7781ZM21.3773 89.529C21.9235 89.529 23.562 89.0211 25.1323 88.3226C28.4776 86.9892 31.345 87.2432 31.345 88.9576C31.345 90.6085 28.6824 92.0689 24.7227 92.4498C22.1966 92.7673 21.1725 92.6404 20.4898 91.8784C19.534 90.7355 20.0119 89.529 21.3773 89.529ZM92.3118 89.8465C93.609 89.3386 94.9744 88.5131 95.5206 88.0052C96.5447 86.7987 100.3 86.6082 100.231 87.7512C100.231 88.8047 95.9885 90.698 92.9535 91.4683C91.1253 91.9323 90.5683 90.5672 92.3118 89.8465ZM59.5413 118.102C57.2883 118.102 56.4691 117.213 58.1759 116.642C60.0192 115.88 62.8184 116.261 64.0473 117.404C64.73 118.039 65.9589 120.452 66.7781 122.737C68.0753 126.293 68.2118 127.373 67.5974 130.865C66.983 134.167 66.4368 135.246 64.3886 137.214L63.7773 137.798C62.8307 138.703 63.0362 140.269 64.1838 140.897C66.7099 142.358 67.9388 142.548 68.4849 141.659C68.8263 141.151 71.011 140.707 76.0631 140.072C77.2237 139.945 78.794 139.627 79.6132 139.373C81.5931 138.802 82.2759 140.262 81.047 142.421C80.0912 144.008 74.015 149.215 73.0591 149.215C72.7178 149.215 71.3524 150.485 69.9186 152.072C67.8705 154.422 67.5291 155.12 68.2118 155.882C68.6897 156.39 69.7138 156.835 70.6014 156.835C74.0832 156.835 73.1274 159.12 68.758 161.089C65.6175 162.549 59.1317 162.93 50.4612 162.168C40.9031 161.279 41.381 156.708 51.1439 155.946C53.6017 155.819 56.1277 155.438 56.7422 155.247C57.9711 154.803 58.8586 153.215 58.3124 152.39C58.0393 151.945 52.0997 150.803 51.0756 150.993C50.8025 151.056 47.3889 150.485 43.5657 149.787C39.6742 149.025 34.349 148.453 31.7546 148.39C28.1362 148.263 26.9074 148.009 26.2929 147.183C25.7467 146.294 25.8833 145.786 27.0439 144.707C27.9361 143.838 29.2111 143.489 30.4196 143.784L36.5337 145.278L41.3436 146.416C43.4348 146.91 45.6342 146.618 47.5255 145.596C49.164 144.707 50.666 143.754 50.8708 143.373C51.4852 142.485 50.3246 141.596 48.0716 141.215C45.409 140.77 45.2042 140.643 44.7946 138.484C44.5215 137.214 42.7464 135.437 38.9232 132.389C35.851 130.039 33.3932 127.881 33.3932 127.627C33.3932 126.293 34.8269 126.547 37.1481 128.262C40.5617 130.801 42.4733 130.674 46.6379 127.754C52.3045 123.753 54.0113 123.118 58.2441 123.499C61.726 123.817 62.0674 123.753 63.1597 122.229C64.2521 120.705 64.2521 120.515 63.0915 119.372C62.3405 118.61 60.975 118.102 59.5413 118.102ZM23.5538 32.9457C23.5538 32.2762 24.0949 31.7335 24.7624 31.7335H24.8559C24.8559 31.064 25.397 30.5213 26.0645 30.5213H26.158C26.158 29.8518 26.6991 29.3091 27.3665 29.3091H27.46H28.7621H30.0642H31.3663H31.4598C32.1273 29.3091 32.6684 29.8518 32.6684 30.5213H32.7619C33.4294 30.5213 33.9705 31.064 33.9705 31.7335H34.064C34.7315 31.7335 35.2726 32.2762 35.2726 32.9457V34.1579V35.37V36.5822C35.2726 37.2517 34.7315 37.7944 34.064 37.7944H33.9705C33.9705 38.4639 33.4294 39.0066 32.7619 39.0066H32.6684C32.6684 39.6761 32.1273 40.2188 31.4598 40.2188H31.3663H30.0642H28.7621H28.6686C28.0011 40.2188 27.46 39.6761 27.46 39.0066H26.158H24.8559V39.5658C24.8559 39.9265 24.5644 40.2188 24.2048 40.2188H24.1581C23.8243 40.2188 23.5538 39.9475 23.5538 39.6127C23.5538 39.278 23.8243 39.0066 24.1581 39.0066H24.8559C24.8559 38.3371 25.397 37.7944 26.0645 37.7944H26.158H27.46H27.5536C28.221 37.7944 28.7621 38.3371 28.7621 39.0066H30.0642H31.3663H32.6684C32.6684 38.3371 33.2095 37.7944 33.877 37.7944H33.9705V36.5822V35.37V34.1579V32.9457V31.7335H33.877C33.2095 31.7335 32.6684 31.1908 32.6684 30.5213H31.3663H30.0642H28.7621V31.7335V32.2927C28.7621 32.6533 28.4707 32.9457 28.1111 32.9457C27.7515 32.9457 27.46 32.6533 27.46 32.2927V31.7335V30.5213H26.158C26.158 31.1908 25.6169 31.7335 24.9494 31.7335H24.8559V32.9457V33.5049C24.8559 33.8655 24.5644 34.1579 24.2048 34.1579C23.8453 34.1579 23.5538 33.8655 23.5538 33.5049V32.9457ZM27.46 36.5822H27.3665C26.6991 36.5822 26.158 36.0395 26.158 35.37V34.8108C26.158 34.4502 26.4494 34.1579 26.809 34.1579C27.1686 34.1579 27.46 34.4502 27.46 34.8108V35.37H28.7621V34.8108C28.7621 34.4502 29.0536 34.1579 29.4132 34.1579H29.4599C29.7937 34.1579 30.0642 34.4292 30.0642 34.764C30.0642 35.0987 29.7937 35.37 29.4599 35.37H28.7621C28.7621 36.0395 28.221 36.5822 27.5536 36.5822H27.46ZM36.5797 29.9152C36.5797 29.5804 36.8503 29.3091 37.184 29.3091H37.8818H37.9753C38.6428 29.3091 39.1839 29.8518 39.1839 30.5213V31.7335V32.9457V34.1579V35.37C39.1839 36.0395 38.6428 36.5822 37.9753 36.5822H37.8818V37.7944V39.0066H39.1839H40.486C40.486 38.3371 41.0271 37.7944 41.6946 37.7944H41.7881C41.7881 37.125 42.3292 36.5822 42.9966 36.5822H43.0901V35.37V34.1579V32.9457V31.7335V30.5213H42.3923C42.0586 30.5213 41.7881 30.2499 41.7881 29.9152C41.7881 29.5804 42.0586 29.3091 42.3923 29.3091H43.0901H43.1836C43.8511 29.3091 44.3922 29.8518 44.3922 30.5213V31.7335V32.9457V34.1579V35.37V36.5822V37.7944V39.0066H45.09C45.4238 39.0066 45.6943 39.278 45.6943 39.6127C45.6943 39.9475 45.4238 40.2188 45.09 40.2188H45.0433C44.6837 40.2188 44.3922 39.9265 44.3922 39.5658V39.0066H44.2987C43.6312 39.0066 43.0901 38.4639 43.0901 37.7944H41.7881C41.7881 38.4639 41.247 39.0066 40.5795 39.0066H40.486C40.486 39.6761 39.9449 40.2188 39.2774 40.2188H39.1839H39.0904C38.4229 40.2188 37.8818 39.6761 37.8818 39.0066H37.7883C37.1208 39.0066 36.5797 38.4639 36.5797 37.7944C36.5797 37.125 37.1208 36.5822 37.7883 36.5822H37.8818V35.37V34.1579V32.9457V31.7335V30.5213H37.184C36.8503 30.5213 36.5797 30.2499 36.5797 29.9152ZM49.598 31.7335V32.9457H50.9001C50.9001 32.2762 51.4412 31.7335 52.1087 31.7335H52.2022C52.2022 31.064 52.7433 30.5213 53.4108 30.5213H53.5043H54.8064H54.8999C55.5673 30.5213 56.1084 31.064 56.1084 31.7335H56.8062C57.14 31.7335 57.4105 32.0048 57.4105 32.3396C57.4105 32.6743 57.14 32.9457 56.8062 32.9457H56.1084C56.1084 33.6151 55.5673 34.1579 54.8999 34.1579H54.8064V35.37H54.8999C55.5673 35.37 56.1084 35.9128 56.1084 36.5822V37.7944H56.2019C56.8694 37.7944 57.4105 38.3371 57.4105 39.0066V40.2188H58.1083C58.4421 40.2188 58.7126 40.4902 58.7126 40.8249C58.7126 41.1597 58.4421 41.431 58.1083 41.431H57.4105H57.317C56.6495 41.431 56.1084 40.8883 56.1084 40.2188V39.0066V37.7944H56.0149C55.3475 37.7944 54.8064 37.2517 54.8064 36.5822V35.37H53.5043H52.2022V36.5822V37.7944C52.2022 38.4639 51.6611 39.0066 50.9936 39.0066H50.9001C50.9001 39.6761 50.359 40.2188 49.6915 40.2188H49.598H49.5045C48.837 40.2188 48.2959 39.6761 48.2959 39.0066H48.2024C47.5349 39.0066 46.9939 38.4639 46.9939 37.7944C46.9939 37.125 47.535 36.5822 48.2024 36.5822H48.2959H48.9937C49.3275 36.5822 49.598 36.8536 49.598 37.1883C49.598 37.5231 49.3275 37.7944 48.9937 37.7944H48.2959V39.0066H49.598H50.9001V37.7944V36.5822V35.37H50.8066C50.1391 35.37 49.598 34.8273 49.598 34.1579H49.5045C48.837 34.1579 48.2959 33.6151 48.2959 32.9457V31.7335C48.2959 31.064 48.837 30.5213 49.5045 30.5213H49.598C49.598 29.8518 50.1391 29.3091 50.8066 29.3091H50.9001C50.9001 28.6396 51.4412 28.0969 52.1087 28.0969H52.2022H53.5043H54.8064H56.1084H57.4105H58.1083C58.4421 28.0969 58.7126 28.3682 58.7126 28.703C58.7126 29.0377 58.4421 29.3091 58.1083 29.3091H57.4105H56.1084H54.8064H53.5043H52.2022H50.9001C50.9001 29.9786 50.359 30.5213 49.6915 30.5213H49.598V31.7335ZM62.6239 31.7335V32.9457H63.926C63.926 32.2762 64.4671 31.7335 65.1346 31.7335H65.2281C65.2281 31.064 65.7692 30.5213 66.4367 30.5213H66.5302H67.8323H67.9258C68.5933 30.5213 69.1344 31.064 69.1344 31.7335H69.8322C70.1659 31.7335 70.4365 32.0048 70.4365 32.3396C70.4365 32.6743 70.1659 32.9457 69.8322 32.9457H69.1344C69.1344 33.6151 68.5933 34.1579 67.9258 34.1579H67.8323V35.37H67.9258C68.5933 35.37 69.1344 35.9128 69.1344 36.5822V37.7944H69.2279C69.8953 37.7944 70.4365 38.3371 70.4365 39.0066V40.2188H71.1342C71.468 40.2188 71.7385 40.4902 71.7385 40.8249C71.7385 41.1597 71.468 41.431 71.1342 41.431H70.4365H70.3429C69.6755 41.431 69.1344 40.8883 69.1344 40.2188V39.0066V37.7944H69.0409C68.3734 37.7944 67.8323 37.2517 67.8323 36.5822V35.37H66.5302H65.2281V36.5822V37.7944C65.2281 38.4639 64.687 39.0066 64.0195 39.0066H63.926C63.926 39.6761 63.3849 40.2188 62.7174 40.2188H62.6239H62.5304C61.863 40.2188 61.3219 39.6761 61.3219 39.0066H61.2284C60.5609 39.0066 60.0198 38.4639 60.0198 37.7944C60.0198 37.125 60.5609 36.5822 61.2284 36.5822H61.3219H62.0197C62.3534 36.5822 62.6239 36.8536 62.6239 37.1883C62.6239 37.5231 62.3534 37.7944 62.0197 37.7944H61.3219V39.0066H62.6239H63.926V37.7944V36.5822V35.37H63.8325C63.165 35.37 62.6239 34.8273 62.6239 34.1579H62.5304C61.863 34.1579 61.3219 33.6151 61.3219 32.9457V31.7335C61.3219 31.064 61.863 30.5213 62.5304 30.5213H62.6239C62.6239 29.8518 63.165 29.3091 63.8325 29.3091H63.926C63.926 28.6396 64.4671 28.0969 65.1346 28.0969H65.2281H66.5302H67.8323H69.1344H70.4365H71.1342C71.468 28.0969 71.7385 28.3682 71.7385 28.703C71.7385 29.0377 71.468 29.3091 71.1342 29.3091H70.4365H69.1344H67.8323H66.5302H65.2281H63.926C63.926 29.9786 63.3849 30.5213 62.7174 30.5213H62.6239V31.7335ZM73.0457 32.9457C73.0457 32.2762 73.5868 31.7335 74.2543 31.7335H74.3478C74.3478 31.064 74.8889 30.5213 75.5564 30.5213H75.6499C75.6499 29.8518 76.191 29.3091 76.8585 29.3091H76.952H78.254H78.3475C79.015 29.3091 79.5561 29.8518 79.5561 30.5213H80.8582C80.8582 29.8518 81.3993 29.3091 82.0668 29.3091H82.1603H82.2538C82.9213 29.3091 83.4624 29.8518 83.4624 30.5213V31.0805C83.4624 31.4411 83.1709 31.7335 82.8113 31.7335C82.4518 31.7335 82.1603 31.4411 82.1603 31.0805V30.5213H80.8582V31.0805C80.8582 31.4411 80.5667 31.7335 80.2072 31.7335C79.8476 31.7335 79.5561 31.4411 79.5561 31.0805V30.5213H78.254H76.952H75.6499C75.6499 31.1908 75.1088 31.7335 74.4413 31.7335H74.3478V32.9457V34.1579V35.37V36.5822H74.4413C75.1088 36.5822 75.6499 37.125 75.6499 37.7944H75.7434C76.4108 37.7944 76.952 38.3371 76.952 39.0066H78.254H79.5561H80.8582H82.1603V38.4474C82.1603 38.0868 82.4518 37.7944 82.8113 37.7944H82.8581C83.1918 37.7944 83.4624 38.0658 83.4624 38.4005C83.4624 38.7353 83.1918 39.0066 82.8581 39.0066H82.1603C82.1603 39.6761 81.6192 40.2188 80.9517 40.2188H80.8582H79.5561H78.254H78.1605C77.4931 40.2188 76.952 39.6761 76.952 39.0066H75.6499H75.5564C74.8889 39.0066 74.3478 38.4639 74.3478 37.7944V36.5822H74.2543C73.5868 36.5822 73.0457 36.0395 73.0457 35.37V34.1579V32.9457ZM76.952 32.3865C76.952 32.0258 77.2434 31.7335 77.603 31.7335C77.9626 31.7335 78.254 32.0258 78.254 32.3865V32.9457V34.1579H79.5561H80.8582V33.5986C80.8582 33.238 81.1497 32.9457 81.5092 32.9457C81.8688 32.9457 82.1603 33.238 82.1603 33.5986V34.1579V35.37V35.9293C82.1603 36.2899 81.8688 36.5822 81.5092 36.5822C81.1497 36.5822 80.8582 36.2899 80.8582 35.9293V35.37H79.5561H78.254V35.9293C78.254 36.2899 77.9626 36.5822 77.603 36.5822H77.5562C77.2225 36.5822 76.952 36.3109 76.952 35.9761C76.952 35.6414 77.2225 35.37 77.5562 35.37H78.254V34.1579H78.1605C77.4931 34.1579 76.952 33.6151 76.952 32.9457V32.3865Z" fill="white"/>
<path fill-rule="evenodd" clip-rule="evenodd" d="M52.2022 35.37C52.2022 34.7006 52.7433 34.1579 53.4108 34.1579H53.5043H54.8064C54.8064 33.4884 55.3475 32.9457 56.0149 32.9457H56.1084V31.7335H54.8064H53.5043H52.2022C52.2022 32.4029 51.6611 32.9457 50.9936 32.9457H50.9001V34.1579V35.37H52.2022ZM63.926 35.37V34.1579V32.9457H64.0195C64.687 32.9457 65.2281 32.4029 65.2281 31.7335H66.5302H67.8323H69.1344V32.9457H69.0409C68.3734 32.9457 67.8323 33.4884 67.8323 34.1579H66.5302H66.4367C65.7692 34.1579 65.2281 34.7006 65.2281 35.37H63.926Z" fill="white"/>
<path d="M6.01615 83.4969C8.95184 85.0208 9.63456 85.1479 10.5904 84.3859C11.2048 83.9414 12.2289 83.243 12.8433 82.862C13.5261 82.5445 15.0963 81.5921 16.3252 80.8301C18.9878 79.2427 19.3974 79.3697 20.6946 82.2271C21.6504 84.3224 21.6504 84.3224 26.9756 84.5764C36.1241 84.9574 38.8549 83.243 35.3731 79.1158C32.5056 75.687 27.8632 74.7345 19.3292 75.814C15.779 76.195 15.0963 76.1315 14.755 75.306C14.1405 73.9091 16.8031 72.9567 22.4697 72.5757C26.4294 72.2582 27.4535 72.4487 30.594 73.9091C32.5739 74.8615 35.5096 76.7664 37.1481 78.1633C38.7867 79.5602 40.2886 80.4492 40.4935 80.0682C41.2444 78.9888 37.5578 72.9567 34.349 70.0359C32.4802 68.2574 29.9471 67.3573 27.3788 67.5592L26.566 67.623C23.8351 67.8135 21.3773 68.131 20.9677 68.3215C19.1926 69.3374 11.9558 70.4168 9.02012 70.0994C3.89972 69.4644 2.7391 68.512 2.7391 64.9562L2.23301 78.2662C2.16515 80.0508 4.4165 82.7125 6.01615 83.4969Z" fill="black"/>
<path d="M119.074 53.146C119.757 58.7336 118.801 60.2575 113.613 61.9084C111.36 62.6069 109.175 63.3688 108.697 63.6863C108.287 63.9403 105.966 64.7657 103.577 65.4642C98.0467 67.2421 85.9625 67.3055 77.9747 65.6547C67.8022 63.5593 61.7943 64.9562 58.2442 70.3534C54.1478 76.449 53.6017 78.6713 53.7382 88.5766C53.8747 94.8627 54.0113 95.6882 55.3085 96.6406C56.1277 97.2756 57.6297 97.7835 58.6538 97.7835C62.7501 97.7835 65.1396 93.7198 64.8665 87.1797C64.7982 84.2589 65.0031 83.7509 66.4368 82.862C67.3926 82.2905 68.4849 80.8301 68.8946 79.6872C70.8062 74.2266 77.5651 70.7978 85.075 71.4963C92.9945 72.2582 93.7455 74.925 86.0991 74.925C80.6373 74.9885 75.8583 75.8775 74.2198 77.2744C72.1716 78.9888 72.7861 79.4967 76.4045 79.0523L76.9312 78.9823C78.6032 78.7601 80.2219 79.6668 80.9104 81.2111C81.5249 82.608 82.6172 83.9414 83.3682 84.1954C87.6693 85.4653 110.404 82.6715 115.456 80.2587C118.479 78.8042 121.98 79.4968 123.042 81.2058C122.795 80.741 120.298 62.3337 119.074 53.146Z" fill="black"/>
<path d="M58.1759 116.642C56.4691 117.213 57.2883 118.102 59.5413 118.102C60.975 118.102 62.3405 118.61 63.0915 119.372C64.2521 120.515 64.2521 120.705 63.1597 122.229C62.0674 123.753 61.726 123.817 58.2441 123.499C54.0113 123.118 52.3045 123.753 46.6379 127.754C42.4733 130.674 40.5617 130.801 37.1481 128.262C34.8269 126.547 33.3932 126.293 33.3932 127.627C33.3932 127.881 35.851 130.039 38.9232 132.389C42.7464 135.437 44.5215 137.214 44.7946 138.484C45.2042 140.643 45.409 140.77 48.0716 141.215C50.3246 141.596 51.4852 142.485 50.8708 143.373C50.666 143.754 49.164 144.707 47.5255 145.596C45.6342 146.618 43.4348 146.91 41.3436 146.416L36.5337 145.278L30.4196 143.784C29.2111 143.489 27.9361 143.838 27.0439 144.707C25.8833 145.786 25.7467 146.294 26.2929 147.183C26.9074 148.009 28.1362 148.263 31.7546 148.39C34.349 148.453 39.6742 149.025 43.5657 149.787C47.3889 150.485 50.8025 151.056 51.0756 150.993C52.0997 150.803 58.0393 151.945 58.3124 152.39C58.8586 153.215 57.9711 154.803 56.7422 155.247C56.1277 155.438 53.6017 155.819 51.1439 155.946C41.381 156.708 40.9031 161.279 50.4612 162.168C59.1317 162.93 65.6175 162.549 68.758 161.089C73.1274 159.12 74.0832 156.835 70.6014 156.835C69.7138 156.835 68.6897 156.39 68.2118 155.882C67.5291 155.12 67.8705 154.422 69.9186 152.072C71.3524 150.485 72.7178 149.215 73.0591 149.215C74.015 149.215 80.0912 144.008 81.047 142.421C82.2759 140.262 81.5931 138.802 79.6132 139.373C78.794 139.627 77.2237 139.945 76.0631 140.072C71.011 140.707 68.8263 141.151 68.4849 141.659C67.9388 142.548 66.7099 142.358 64.1838 140.897C63.0362 140.269 62.8307 138.703 63.7773 137.798L64.3886 137.214C66.4368 135.246 66.983 134.167 67.5974 130.865C68.2118 127.373 68.0753 126.293 66.7781 122.737C65.9589 120.452 64.73 118.039 64.0473 117.404C62.8184 116.261 60.0192 115.88 58.1759 116.642Z" fill="black"/>
<path d="M95.5206 88.0052C94.9744 88.5131 93.609 89.3386 92.3118 89.8465C90.5683 90.5672 91.1253 91.9323 92.9535 91.4683C95.9885 90.698 100.231 88.8047 100.231 87.7512C100.3 86.6082 96.5447 86.7987 95.5206 88.0052Z" fill="black"/>
<path d="M25.1323 88.3226C23.562 89.0211 21.9235 89.529 21.3773 89.529C20.0119 89.529 19.534 90.7355 20.4898 91.8784C21.1725 92.6404 22.1966 92.7673 24.7227 92.4498C28.6824 92.0689 31.345 90.6085 31.345 88.9576C31.345 87.2432 28.4776 86.9892 25.1323 88.3226Z" fill="black"/>
</svg>
