<svg width="18" height="18" viewBox="0 0 18 18" fill="none" xmlns="http://www.w3.org/2000/svg">
<path d="M9.40614 0.930506C9.14757 0.815588 8.85243 0.815588 8.59386 0.930506L2.84386 3.48606C2.48273 3.64656 2.25 4.00468 2.25 4.39987V8.25C2.25 12.2893 4.9828 16.1128 8.75828 17.1855C8.91617 17.2303 9.08383 17.2303 9.24172 17.1855C13.0172 16.1128 15.75 12.2893 15.75 8.25V4.39987C15.75 4.00468 15.5173 3.64656 15.1561 3.48606L9.40614 0.930506ZM11.25 10.5C11.25 10.9142 10.9142 11.25 10.5 11.25C10.0858 11.25 9.75 11.5858 9.75 12V12.75C9.75 13.1642 9.41421 13.5 9 13.5C8.58579 13.5 8.25 13.1642 8.25 12.75V12C8.25 11.5858 7.91421 11.25 7.5 11.25C7.08579 11.25 6.75 10.9142 6.75 10.5V10.4369C6.75 10.0575 7.05753 9.75 7.43689 9.75C7.86211 9.75 8.18518 9.36757 8.11412 8.94832L7.59836 5.9053C7.53765 5.54715 7.67594 5.18425 7.9596 4.95732L8.3753 4.62476C8.74052 4.33258 9.25948 4.33258 9.6247 4.62476L10.0404 4.95732C10.3241 5.18425 10.4623 5.54715 10.4016 5.9053L9.88588 8.94832C9.81482 9.36757 10.1379 9.75 10.5631 9.75C10.9425 9.75 11.25 10.0575 11.25 10.4369V10.5Z" fill="white"/>
</svg>
